<svg width="16" height="24" viewBox="0 0 16 24" fill="none" xmlns="http://www.w3.org/2000/svg">
<path d="M2.08424 0.000413261C1.72953 -0.0073884 1.3812 0.0954378 1.08768 0.294755C0.794161 0.494071 0.570034 0.780027 0.446463 1.11261C0.322891 1.44519 0.306014 1.80796 0.398178 2.15058C0.490342 2.4932 0.686967 2.79845 0.960717 3.02415L11.4058 11.9723L0.960717 20.9173C0.771351 21.0565 0.612761 21.2332 0.494879 21.4365C0.376997 21.6398 0.302364 21.8654 0.275651 22.0988C0.248939 22.3323 0.270723 22.5688 0.33964 22.7935C0.408557 23.0181 0.523121 23.2262 0.67616 23.4046C0.829198 23.5829 1.01741 23.7276 1.22902 23.8298C1.44062 23.9321 1.67106 23.9895 1.9059 23.9986C2.14073 24.0076 2.37491 23.9682 2.59376 23.8826C2.81262 23.797 3.01143 23.6671 3.17776 23.5011L15.1365 13.2692C15.3243 13.1089 15.4751 12.91 15.5785 12.6858C15.6819 12.4616 15.7354 12.2176 15.7354 11.9708C15.7354 11.7239 15.6819 11.4799 15.5785 11.2557C15.4751 11.0315 15.3243 10.8324 15.1365 10.6721L3.17776 0.430407C2.87567 0.162078 2.48819 0.00952601 2.08424 1.94939e-05V0.000413261Z" fill="white"/>
</svg>
