<svg width="16" height="24" viewBox="0 0 16 24" fill="none" xmlns="http://www.w3.org/2000/svg">
<path d="M13.9158 23.9995C14.2705 24.0073 14.6188 23.9044 14.9123 23.7051C15.2058 23.5058 15.43 23.2199 15.5535 22.8873C15.6771 22.5547 15.694 22.1919 15.6018 21.8493C15.5097 21.5067 15.313 21.2014 15.0393 20.9757L4.59418 12.0276L15.0393 3.08253C15.2287 2.94335 15.3872 2.76665 15.5051 2.56335C15.623 2.36004 15.6976 2.13452 15.7244 1.90103C15.7511 1.66754 15.7293 1.4311 15.6604 1.20642C15.5914 0.981745 15.4769 0.773649 15.3238 0.595297C15.1708 0.416944 14.9826 0.272272 14.771 0.170029C14.5594 0.0677852 14.3289 0.0103606 14.0941 0.00129876C13.8593 -0.00776117 13.6251 0.0316294 13.4062 0.117264C13.1874 0.202898 12.9886 0.332794 12.8222 0.498825L0.863546 10.7307C0.675749 10.8909 0.524947 11.0899 0.421541 11.314C0.318136 11.5382 0.264588 11.7822 0.264588 12.0291C0.264588 12.276 0.318136 12.52 0.421541 12.7442C0.524947 12.9684 0.675749 13.1675 0.863545 13.3278L12.8222 23.5695C13.1243 23.8378 13.5118 23.9904 13.9158 23.9999L13.9158 23.9995Z" fill="white"/>
</svg>
